<svg xmlns="http://www.w3.org/2000/svg" xmlns:xlink="http://www.w3.org/1999/xlink" version="1.1" x="0px" y="0px" viewBox="0 0 335.0135 396.14087499999994" enable-background="new 0 0 335.0135 316.9127" xml:space="preserve"><g><path d="M0.6288,217.4254l0.5078,1.2012c2.4335,5.7788,4.4226,10.3699,9.3402,13.1018   c-2.6459,4.1602-9.8553,17.2308-1.7377,25.5896c4.5831,4.7217,7.6843,7.3383,10.6738,9.162   c-2.7002,4.3384-6.8988,13.3197-1.0303,20.4913c6.6016,8.0713,12.251,12.085,25.1807,12.085c0.8447,0,1.7188-0.0195,2.627-0.0537   c4.0759-0.1526,7.4463-0.3094,10.4401-0.658c5.6793,1.3092,43.6499,9.8431,61.0052,8.6169   c9.7949-0.6934,22.915-4.2334,34.4873-7.3535c10.2295-2.7588,19.8926-5.3662,25.2393-5.4785   c12.1094-0.3662,69.1016,4.624,87.3047,8.9307c18.252,4.3066,54.5312,13.7598,54.8975,13.8525l1.0059-3.8672   c-0.0378-0.0104-0.5505-0.144-1.3177-0.3436c-6.5472-1.7035-37.2913-9.6704-53.6676-13.5382   c-16.1566-3.8135-62.4127-8.0865-81.8152-8.8989c-0.8813-2.796-2.1191-9.317,2.0496-16.9312   c6.1621-11.25,3.3008-19.3799,3.1738-19.7217l-2.8174,1.0254c0.0244,0.0732,2.4805,7.2754-2.9834,17.251   c-4.2688,7.793-3.5016,14.5972-2.5446,18.2684c-0.8295-0.0201-1.6638-0.0409-2.3236-0.0409c-0.3809,0-0.7275,0.0049-1.0498,0.0098   c-0.7788,0.0171-1.778,0.1782-2.6807,0.2765c-1.1206-1.8134-3.7152-7.7899,0.5469-20.3888   c2.6758-7.9053,4.9512-12.207,6.7822-15.669c1.9678-3.7256,3.3936-6.416,3.8184-11.1182l-2.9883-0.2734   c-0.3711,4.1016-1.543,6.3184-3.4814,9.9902c-1.7822,3.3643-4.2188,7.9785-6.9727,16.1084   c-4.0082,11.8512-2.3865,18.5529-0.8636,21.756c-5.5212,0.9564-12.5244,2.8247-20.3522,4.9384   c-11.4014,3.0762-24.3213,6.5625-33.7305,7.2217c-12.8705,0.9497-38.8055-4.0247-52.1454-6.8427   c3.0359-1.4563,5.7629-3.7219,8.6639-7.3761c5.4053-6.8115,7.8809-13.418,7.3584-19.6387   c-0.2148-2.6282-2.1161-5.2466-3.3698-6.7303c5.5505-5.1837,7.5629-20.2094,5.816-24.8761   c-0.8386-2.2345-1.8164-3.8568-2.6147-4.9493c4.3304-6.0858,5.7904-12.7155,4.7876-21.5302   c-1.0754-9.4507-4.7406-14.0991-6.3837-15.7605c0.9839-0.8356,1.9427-1.665,2.7765-2.4438   c1.7957,11.2109,11.9733,56.8616,58.5339,56.8616c0.1123,0,0.2295,0,0.3418,0l-0.0098-2.4023c-0.1172,0-0.2246,0-0.3418,0   c-48.7775,0-55.7812-50.8557-56.4142-56.604c1.0046-1.087,1.814-2.0734,2.1124-2.771c1.748-4.0723,5.3564-14.209,1.1426-20.3174   c-0.816-1.181-1.936-2.052-3.1989-2.7759c0.8124-8.3447,5.4175-21.8396,5.4645-21.98l-2.2656-0.7812   c-0.1996,0.5719-4.4745,13.1183-5.4962,21.7462c-1.8085-0.5621-3.8708-0.8575-6.2958-0.7599   c-4.917,0.21-7.8271,0.6006-9.5654,0.835c-2.1436,0.2783-2.1387,0.2881-3.6328-1.0693c-0.321-0.2893-0.705-0.6348-1.1523-1.0284   c4.881-8.4973,1.2378-21.1224,1.1963-21.2518l-2.2754,0.7617c0.0409,0.1184,3.2007,11.4227-0.7782,18.9148   c-1.0852-0.8966-2.3907-1.936-4.0802-3.1873c-13.9209-10.3076-20.127-11.1133-20.7861-11.1719l-0.3809,3.9795   c0.0537,0.0098,5.7959,0.7861,18.7842,10.4053c3.623,2.6855,5.5322,4.4043,6.792,5.5469c1.5247,1.3776,2.395,1.9635,3.5321,2.1613   c0.5243,1.6809,1.1914,4.74,0.2423,8.0731l2.3047,0.6543c1.0083-3.5284,0.498-6.6711-0.0671-8.7433   c0.2905-0.0323,0.4938-0.0348,0.8337-0.08c1.7773-0.2393,4.4678-0.6006,9.2041-0.8057c4.1602-0.1807,6.9141,0.7812,8.3301,2.832   c0.3827,0.5548,0.6586,1.1823,0.8618,1.8512c-1.6095,0.7233-5.4761,2.7087-7.4829,6.059   c-2.2821,3.8092-0.354,11.4197,0.2454,13.5345c-5.777,5.0317-15.0751,11.8573-18.9758,12.8766   c-4.5312,0.9375-45.5713-18.2227-50.0342-28.6377c-4.9561-11.5625,5.9326-21.7969,15.9424-28.3496   c13.2715-8.6865,53.0371-10.5029,60.1904-10.2051c1.3525,0.0244,2.6611-0.4346,3.5791-1.4355   c2.6953-2.9541,1.7871-9.6973,0.8301-16.8408c-0.3711-2.7686-0.7227-5.3809-0.791-7.4023   c-0.1123-3.5645-2.5977-9.4775-6.04-17.6562c-4.6924-11.1621-11.1182-26.4453-13.2373-41.1084   c-2.1924-15.2051,5.2246-31.2988,13.5547-40.5029c4.6973-5.1904,9.7754-8.1934,13.1396-8.0469   c3.4961,0.1514,5.3229,0.9808,6.2164,3.8037c-1.413,1.2476-3.3539,3.1586-4.3805,5.2148   c-1.4209,2.8418-1.6504,28.0176,1.1475,30.0146c0.6152,0.4395,1.377,0.6055,2.1729,0.6055c0.7886,0,1.5918-0.1813,2.3541-0.4028   c0.6024,2.7863,1.4667,5.6628,2.605,8.6212c-5.9845,1.0291-13.6841,5.5206-14.0558,5.7367l1.2207,2.0703   c0.094-0.0537,8.2971-4.7736,13.7787-5.4883c0.4633,1.0986,0.9467,2.1991,1.4691,3.3112   c-2.4609,0.387-6.1908,1.4056-11.1169,4.4086l1.25,2.0508c5.1849-3.1641,8.9252-3.9734,10.9631-4.2023   c1.6901,3.3789,3.6133,6.7834,5.7153,10.1788c-4.5374,3.2996-11.2561,4.6008-11.3318,4.6143l0.4395,2.3633   c0.3235-0.061,7.1851-1.3806,12.1582-4.9225c10.639,16.6144,25.0128,32.4738,34.6484,40.9039   c7.3145,6.4014,11.3135,19.1309,15.5469,32.6074c4.9854,15.8594,10.1367,32.2559,21.4502,41.8701   c19.4989,16.5741,126.3611,20.6342,144.1888,21.1993c1.2219,0.0385,2.0404,0.0616,2.3688,0.0702l0.1074-3.9941   c-1.2402-0.0342-124.3066-3.5205-144.0771-20.3223c-10.4297-8.8672-15.4053-24.707-20.2197-40.0244   c-4.4092-14.0283-8.5742-27.2803-16.7285-34.4141c-14.8328-12.9761-42.8271-46.0199-46.8109-69.0283   c0.3693-2.8558,2.9535-23.9337-0.675-32.5208c-0.9943-5.1465-3.6224-8.0328-10.2289-8.3191   c-4.7168-0.127-10.7129,3.208-16.2842,9.3555c-8.2959,9.1748-17.085,26.1377-14.541,43.7646   c2.1875,15.166,8.7305,30.7227,13.5059,42.0801c3.0273,7.1973,5.6396,13.4131,5.7324,16.2354   c0.0684,2.2266,0.4346,4.9365,0.8203,7.8076c0.6445,4.7949,1.6162,12.0361-0.2783,13.75   c-4.3848-0.2246-47.4414,0.9668-62.5439,10.8496C6.7225,154.2955,0.536,166.1119,5.2528,177.1178   c1.1597,2.7051,4.3347,5.8917,8.5406,9.1681C10.3944,190.6615-3.0395,208.7724,0.6288,217.4254z M70.7362,286.2584   c-4.2706,5.3833-7.9688,7.2296-13.8879,8.0292c-0.0006,0-0.0079-0.0018-0.0085-0.0018l-0.0006,0.0031   c-2.9382,0.3961-6.3812,0.553-10.7953,0.7196c-13.335,0.415-18.2666-2.8613-24.5654-10.5664   c-4.3365-5.3021-0.6732-12.6575,1.5015-16.0974c1.5857,0.7037,3.2739,1.3348,5.2612,2.0447   c1.3574,0.4834,3.6475,0.6982,6.5283,0.6982c11.2048,0,31.2482-3.2617,39.5984-6.6284c1.1847,1.2976,2.7496,3.454,2.8772,4.9829   C77.6795,274.6178,75.4872,280.2769,70.7362,286.2584z M79.9305,238.9097c1.2988,3.4668-0.7471,17.4268-5.0244,20.8447   c-4.3213,3.4619-38.5156,9.3213-45.3174,6.8652c-6.7627-2.4121-9.5605-3.4131-17.9785-12.085   c-6.427-6.6229,0.8862-18.6285,2.6172-21.2543c1.0236,0.296,2.1167,0.553,3.3447,0.7416c1.8262,0.2783,4.6582,0.8398,8.1152,1.5186   c14.1602,2.7832,28.3105,5.3271,38.3447,5.3271c5.8154,0,10.2441-0.8545,12.4854-3.0176c0.7245-0.6989,1.1841-1.4215,1.8225-2.1246   C78.8526,236.5318,79.4129,237.5316,79.9305,238.9097z M79.7547,179.0025c1.4288-2.384,4.1962-3.9929,5.8179-4.7961   c0.2106,4.6033-1.9269,10.127-2.7856,12.1252c-0.2545,0.5969-1.3519,1.7645-2.8223,3.1519   C79.2115,186.4195,78.3601,181.3335,79.7547,179.0025z M59.9696,208.0504c3.3032-0.8624,10.3424-5.5048,16.3757-10.2533   c0.5969,0.5273,4.4598,4.2712,5.5286,13.6761c1.167,10.2881-1.0352,16.6553-8.1299,23.4961   c-5.1172,4.9512-34.6729-0.874-47.2852-3.3545c-3.5254-0.6934-6.416-1.2598-8.2812-1.5479   c-8.4277-1.2939-10.1758-5.4492-13.3545-12.9932l-0.5127-1.2109c-2.204-5.2026,6.3806-19.071,12.7045-27.1954   C31.6828,199.0074,54.9091,209.3761,59.9696,208.0504z M100.0819,14.0904c0.9277-1.8555,2.9541-3.7744,4.2139-4.8584   c2.8662,6.5918,1.4697,23.7842,0.5371,31.001c-1.6748,0.7861-3.6914,1.3135-4.209,0.9863   C99.2176,39.0172,98.7684,16.7076,100.0819,14.0904z"/></g><text x="0" y="331.9127" fill="#000000" font-size="5px" font-weight="bold" font-family="'Helvetica Neue', Helvetica, Arial-Unicode, Arial, Sans-serif">Created by Gan Khoon Lay</text><text x="0" y="336.9127" fill="#000000" font-size="5px" font-weight="bold" font-family="'Helvetica Neue', Helvetica, Arial-Unicode, Arial, Sans-serif">from the Noun Project</text></svg>